<svg fill="#ff3200" xmlns="http://www.w3.org/2000/svg" viewBox="0 0 19.92 16.61">
  <path class="cls-1" d="m11.63,11.64h1.62s.02.08.02.12c0,1.58,0,3.16,0,4.74,0,.04,0,.08,0,.12H0v-4.98c.56,0,1.12,0,1.68,0h0v3.29h9.95c0-.43,0-.85,0-1.27,0-.67,0-1.35.01-2.02h0Z"/>
  <path class="cls-1" d="m14.94,16.61v-1.67h3.32c0-.09,0-.15,0-.21,0-.96,0-1.93,0-2.89,0-.06-.01-.13-.02-.19h0c.18,0,.37-.02.55-.02.38,0,.76,0,1.14,0v4.98h-4.98Z"/>
  <path class="cls-1" d="m9.14,0c0,.56,0,1.12,0,1.68h0c-.38,0-.76-.01-1.14-.01-1.28,0-2.56,0-3.84,0h0c0-.55,0-1.11,0-1.67h4.98Z"/>
  <path class="cls-1" d="m15.74,1.69c-.07,0-.14-.02-.21-.02-.95,0-1.9,0-2.85,0-.07,0-.14,0-.23,0V0h3.31c0,.56-.01,1.13-.02,1.69h0Z"/>
  <path class="cls-1" d="m1.68,11.64v-1.66h9.95c0,.55,0,1.11,0,1.66,0,0,0,0,0,0-.06,0-.12,0-.17,0-3.21,0-6.42,0-9.64,0-.05,0-.1,0-.15,0h0Z"/>
  <path class="cls-1" d="m4.17,6.65h-1.66V1.68c.56,0,1.11,0,1.66,0h0c0,.95,0,1.91,0,2.86,0,.7,0,1.41,0,2.11h0Z"/>
  <path class="cls-1" d="m15.74,1.69c.19,0,.37-.02.56-.03.37,0,.74,0,1.12,0v4.99h-1.66,0c0-.63,0-1.27,0-1.9,0-.95,0-1.9,0-2.86,0-.07-.01-.14-.02-.21,0,0,0,0,0,0Z"/>
  <path class="cls-1" d="m9.14,1.68h1.63v4.97h-1.63,0c0-.05-.01-.11-.01-.17,0-1.55,0-3.11,0-4.66,0-.05,0-.1.01-.15h0Z"/>
  <path class="cls-1" d="m9.14,6.65v1.63h-4.98c0-.54,0-1.09,0-1.63,0,0,0,0,0,0,.04,0,.09-.01.13-.01,1.57,0,3.13,0,4.7,0,.05,0,.1,0,.15.01h0Z"/>
  <path class="cls-1" d="m18.23,11.65c-.07,0-.14-.02-.21-.02-.95,0-1.9,0-2.86,0h-.22v-1.65h3.31c0,.18,0,.36,0,.54,0,.38-.02.76-.03,1.14,0,0,0,0,0,0Z"/>
  <path class="cls-1" d="m15.75,6.65v1.63h-3.29v-1.62s.09-.01.13-.01c1.02,0,2.03,0,3.05,0,.04,0,.08,0,.12.01,0,0,0,0,0,0Z"/>
</svg>