<svg fill="#ff3200" data-name="Camada 1" xmlns="http://www.w3.org/2000/svg" viewBox="0 0 20 19.99">
  <path d="m18.03,9.99c0,.1,0,.2,0,.3,0,3.13,0,6.26,0,9.39v.3h-7.02v-5.97h-1.99v5.98H1.98c0-.11,0-.21,0-.31,0-3.13,0-6.26,0-9.39,0-.1,0-.2,0-.3h0c.67,0,1.34,0,2.03,0v7.99h3.01v-5.97h6.01v5.97h3.01v-8h2.01,0Z"/>
  <path d="m7.98,1.96V0h4.03v1.96h0c-1,0-2,0-3,0-.35,0-.7,0-1.05-.02h0Z"/>
  <path d="m3.99,6.01v-2.02h2.02,0c0,.65,0,1.31,0,2.01h-2.02,0Z"/>
  <path d="m13.99,3.99h2.02v2.02h0c-.66,0-1.32,0-2.02,0v-2.02h0Z"/>
  <path d="m6.01,3.99V1.96c.66,0,1.32,0,1.97,0,0,0,0,0,0,0v2.02h-1.97,0Z"/>
  <path d="m12.02,1.96h1.97v2.02h0c-.66,0-1.32,0-1.97,0V1.96h0Z"/>
  <path d="m1.97,7.97v-1.97c.7,0,1.36,0,2.02,0h0v1.96H1.97h0Z"/>
  <path d="m16.01,6.01h2.02v1.97h0c-.67,0-1.33,0-2.02,0v-1.97h0Z"/>
  <path d="m1.97,9.99H0v-2.02c.67,0,1.32,0,1.97,0h0c0,.67,0,1.35,0,2.02h0Z"/>
  <path d="m18.03,7.97h1.97v2.02c-.67,0-1.32,0-1.97,0,0,0,0,0,0,0,0-.68,0-1.35,0-2.03h0Z"/>
</svg>