<?xml version="1.0" encoding="UTF-8"?>
<svg id="Camada_1" fill=" #1bf655" data-name="Camada 1" xmlns="http://www.w3.org/2000/svg" viewBox="0 0 15.87 15.87">
  <path class="cls-1" d="m8.8,1.82c.59-.59,1.18-1.18,1.79-1.79.57.57,1.14,1.14,1.76,1.76l1.79-1.79,1.74,1.74c-.58.58-1.17,1.17-1.77,1.77l1.76,1.76c-.61.61-1.21,1.21-1.8,1.8,0,0,.01,0,.01,0l-1.76-1.76c-.08.08-.17.17-.25.25-3.34,3.34-6.69,6.69-10.03,10.03-.1.1-.2.19-.3.28-.58-.58-1.16-1.16-1.74-1.74.09-.1.18-.2.28-.3,3.33-3.33,6.67-6.67,10-10l.28-.28c-.06-.07-.1-.14-.15-.19-.47-.48-.95-.95-1.43-1.43-.05-.05-.12-.09-.18-.13,0,0,0,0,0,0Z"/>
  <path class="cls-1" d="m14.17,10.58c-.21-.19-.42-.37-.62-.57-.4-.39-.78-.78-1.21-1.21.59-.59,1.16-1.16,1.73-1.74,0,0-.01,0-.01,0,.21.2.43.38.64.59.38.37.76.75,1.16,1.16-.08.09-.15.17-.22.24-.43.43-.87.87-1.3,1.3-.07.07-.12.15-.18.22h0Z"/>
  <path class="cls-1" d="m14.17,10.58c.26.28.53.57.8.84.29.3.59.59.9.9-.6.6-1.17,1.17-1.76,1.76-.57-.57-1.14-1.14-1.74-1.74.14-.14.27-.27.4-.4.47-.45.94-.9,1.41-1.35,0,0,0,0,0,0Z"/>
  <path class="cls-1" d="m5.29,1.71c.28-.27.57-.53.85-.8C6.44.62,6.73.32,7.05,0c.39.39.76.76,1.13,1.13.22.22.42.45.63.68,0,0,0,0,0,0-.48.48-.97.95-1.45,1.42-.09.09-.18.18-.29.29-.46-.46-.91-.9-1.35-1.35-.15-.15-.28-.32-.42-.48h0Z"/>
  <path class="cls-1" d="m5.29,1.7c-.19.21-.37.42-.57.62-.39.4-.78.78-1.19,1.19-.59-.59-1.16-1.16-1.75-1.75C2.37,1.19,2.94.62,3.53.02c.08.07.16.14.23.21.43.43.87.87,1.3,1.3.07.07.15.12.22.18,0,0,0,0,0,0Z"/>
</svg>