<svg fill=" #ff3200" data-name="Camada 1" xmlns="http://www.w3.org/2000/svg" viewBox="0 0 17.67 17.67">
  <path class="cls-1" d="m13.21,8.86h2.24v2.2h2.23v2.17h-2.23v2.23h-2.22v-2.21c-.12,0-.23,0-.34,0-4.17,0-8.35,0-12.52,0-.12,0-.24,0-.36-.01V0h2.22v11.03h11c0-.06.02-.13.02-.19,0-.66-.02-1.32-.03-1.98h0Z"/>
  <path class="cls-1" d="m13.23,15.45c0,.74,0,1.48,0,2.23h-2.17v-2.23h2.17Z"/>
  <path class="cls-1" d="m13.21,8.85h-2.15v-2.21h2.18c0,.47,0,.93,0,1.4,0,.27-.02.55-.03.82,0,0,0,0,0,0Z"/>
</svg>